<mxfile host="app.diagrams.net" modified="2021-02-10T00:14:40.067Z" agent="5.0 (Windows NT 10.0; Win64; x64) AppleWebKit/537.36 (KHTML, like Gecko) Chrome/88.0.4324.146 Safari/537.36" etag="3MsEx2PFXVhWhLJMW13h" version="14.3.0" type="github">
  <diagram id="1B3Y4TF5GCTgguhcyiXz" name="Page-1">
    <mxGraphModel dx="1021" dy="574" grid="1" gridSize="10" guides="1" tooltips="1" connect="1" arrows="1" fold="1" page="1" pageScale="1" pageWidth="827" pageHeight="1169" math="0" shadow="0">
      <root>
        <mxCell id="0" />
        <mxCell id="1" parent="0" />
        <mxCell id="o3wT2hrJYVhyHIlOyUCE-9" style="edgeStyle=orthogonalEdgeStyle;rounded=0;orthogonalLoop=1;jettySize=auto;html=1;exitX=0.5;exitY=1;exitDx=0;exitDy=0;entryX=0.5;entryY=0;entryDx=0;entryDy=0;" edge="1" parent="1" source="o3wT2hrJYVhyHIlOyUCE-1" target="o3wT2hrJYVhyHIlOyUCE-2">
          <mxGeometry relative="1" as="geometry" />
        </mxCell>
        <mxCell id="o3wT2hrJYVhyHIlOyUCE-1" value="INICIO" style="rounded=1;whiteSpace=wrap;html=1;" vertex="1" parent="1">
          <mxGeometry x="170" y="20" width="60" height="20" as="geometry" />
        </mxCell>
        <mxCell id="o3wT2hrJYVhyHIlOyUCE-10" style="edgeStyle=orthogonalEdgeStyle;rounded=0;orthogonalLoop=1;jettySize=auto;html=1;exitX=0.5;exitY=1;exitDx=0;exitDy=0;entryX=0.5;entryY=0;entryDx=0;entryDy=0;" edge="1" parent="1" source="o3wT2hrJYVhyHIlOyUCE-2" target="o3wT2hrJYVhyHIlOyUCE-3">
          <mxGeometry relative="1" as="geometry" />
        </mxCell>
        <mxCell id="o3wT2hrJYVhyHIlOyUCE-24" style="edgeStyle=orthogonalEdgeStyle;rounded=0;orthogonalLoop=1;jettySize=auto;html=1;exitX=0.5;exitY=1;exitDx=0;exitDy=0;entryX=0.5;entryY=0;entryDx=0;entryDy=0;" edge="1" parent="1" source="o3wT2hrJYVhyHIlOyUCE-2" target="o3wT2hrJYVhyHIlOyUCE-23">
          <mxGeometry relative="1" as="geometry" />
        </mxCell>
        <mxCell id="o3wT2hrJYVhyHIlOyUCE-2" value="s, m, h" style="shape=parallelogram;perimeter=parallelogramPerimeter;whiteSpace=wrap;html=1;fixedSize=1;" vertex="1" parent="1">
          <mxGeometry x="140" y="60" width="120" height="30" as="geometry" />
        </mxCell>
        <mxCell id="o3wT2hrJYVhyHIlOyUCE-11" style="edgeStyle=orthogonalEdgeStyle;rounded=0;orthogonalLoop=1;jettySize=auto;html=1;exitX=0.5;exitY=1;exitDx=0;exitDy=0;entryX=0.5;entryY=0;entryDx=0;entryDy=0;" edge="1" parent="1" source="o3wT2hrJYVhyHIlOyUCE-3" target="o3wT2hrJYVhyHIlOyUCE-4">
          <mxGeometry relative="1" as="geometry" />
        </mxCell>
        <mxCell id="o3wT2hrJYVhyHIlOyUCE-3" value="s++;" style="rounded=0;whiteSpace=wrap;html=1;" vertex="1" parent="1">
          <mxGeometry x="160" y="200" width="80" height="30" as="geometry" />
        </mxCell>
        <mxCell id="o3wT2hrJYVhyHIlOyUCE-12" style="edgeStyle=orthogonalEdgeStyle;rounded=0;orthogonalLoop=1;jettySize=auto;html=1;exitX=0.5;exitY=1;exitDx=0;exitDy=0;" edge="1" parent="1" source="o3wT2hrJYVhyHIlOyUCE-4" target="o3wT2hrJYVhyHIlOyUCE-7">
          <mxGeometry relative="1" as="geometry" />
        </mxCell>
        <mxCell id="o3wT2hrJYVhyHIlOyUCE-4" value="Visualizar&lt;br&gt;h&#39;h&#39;:m&#39;m&#39;:s&#39;s&#39;" style="shape=parallelogram;perimeter=parallelogramPerimeter;whiteSpace=wrap;html=1;fixedSize=1;" vertex="1" parent="1">
          <mxGeometry x="140" y="250" width="120" height="60" as="geometry" />
        </mxCell>
        <mxCell id="o3wT2hrJYVhyHIlOyUCE-22" style="edgeStyle=orthogonalEdgeStyle;rounded=0;orthogonalLoop=1;jettySize=auto;html=1;entryX=0;entryY=0.5;entryDx=0;entryDy=0;exitX=0;exitY=0.5;exitDx=0;exitDy=0;" edge="1" parent="1" source="o3wT2hrJYVhyHIlOyUCE-5" target="o3wT2hrJYVhyHIlOyUCE-3">
          <mxGeometry relative="1" as="geometry">
            <Array as="points">
              <mxPoint x="100" y="520" />
              <mxPoint x="100" y="215" />
            </Array>
          </mxGeometry>
        </mxCell>
        <mxCell id="o3wT2hrJYVhyHIlOyUCE-30" style="edgeStyle=orthogonalEdgeStyle;rounded=0;orthogonalLoop=1;jettySize=auto;html=1;entryX=0.5;entryY=0;entryDx=0;entryDy=0;" edge="1" parent="1" source="o3wT2hrJYVhyHIlOyUCE-5" target="o3wT2hrJYVhyHIlOyUCE-6">
          <mxGeometry relative="1" as="geometry" />
        </mxCell>
        <mxCell id="o3wT2hrJYVhyHIlOyUCE-5" value="Batería al 10%" style="rhombus;whiteSpace=wrap;html=1;" vertex="1" parent="1">
          <mxGeometry x="160" y="480" width="80" height="80" as="geometry" />
        </mxCell>
        <mxCell id="o3wT2hrJYVhyHIlOyUCE-33" style="edgeStyle=orthogonalEdgeStyle;rounded=0;orthogonalLoop=1;jettySize=auto;html=1;exitX=1;exitY=0.5;exitDx=0;exitDy=0;" edge="1" parent="1" source="o3wT2hrJYVhyHIlOyUCE-6">
          <mxGeometry relative="1" as="geometry">
            <mxPoint x="200" y="450" as="targetPoint" />
            <mxPoint x="270" y="615" as="sourcePoint" />
            <Array as="points">
              <mxPoint x="290" y="615" />
              <mxPoint x="290" y="450" />
            </Array>
          </mxGeometry>
        </mxCell>
        <mxCell id="o3wT2hrJYVhyHIlOyUCE-37" style="edgeStyle=orthogonalEdgeStyle;rounded=0;orthogonalLoop=1;jettySize=auto;html=1;entryX=0.5;entryY=0;entryDx=0;entryDy=0;" edge="1" parent="1" source="o3wT2hrJYVhyHIlOyUCE-6" target="o3wT2hrJYVhyHIlOyUCE-35">
          <mxGeometry relative="1" as="geometry" />
        </mxCell>
        <mxCell id="o3wT2hrJYVhyHIlOyUCE-6" value="recargar batería" style="rounded=0;whiteSpace=wrap;html=1;" vertex="1" parent="1">
          <mxGeometry x="145" y="600" width="110" height="30" as="geometry" />
        </mxCell>
        <mxCell id="o3wT2hrJYVhyHIlOyUCE-17" style="edgeStyle=orthogonalEdgeStyle;rounded=0;orthogonalLoop=1;jettySize=auto;html=1;exitX=0.5;exitY=1;exitDx=0;exitDy=0;" edge="1" parent="1" source="o3wT2hrJYVhyHIlOyUCE-7" target="o3wT2hrJYVhyHIlOyUCE-5">
          <mxGeometry relative="1" as="geometry">
            <mxPoint x="200" y="430" as="sourcePoint" />
          </mxGeometry>
        </mxCell>
        <mxCell id="o3wT2hrJYVhyHIlOyUCE-26" style="edgeStyle=orthogonalEdgeStyle;rounded=0;orthogonalLoop=1;jettySize=auto;html=1;entryX=1;entryY=0.383;entryDx=0;entryDy=0;entryPerimeter=0;" edge="1" parent="1" source="o3wT2hrJYVhyHIlOyUCE-7" target="o3wT2hrJYVhyHIlOyUCE-23">
          <mxGeometry relative="1" as="geometry">
            <Array as="points">
              <mxPoint x="300" y="370" />
              <mxPoint x="300" y="133" />
            </Array>
          </mxGeometry>
        </mxCell>
        <mxCell id="o3wT2hrJYVhyHIlOyUCE-7" value="¿&lt;br&gt;s=86400&lt;br&gt;?" style="rhombus;whiteSpace=wrap;html=1;" vertex="1" parent="1">
          <mxGeometry x="160" y="330" width="80" height="80" as="geometry" />
        </mxCell>
        <mxCell id="o3wT2hrJYVhyHIlOyUCE-19" value="si" style="text;html=1;align=center;verticalAlign=middle;resizable=0;points=[];autosize=1;" vertex="1" parent="1">
          <mxGeometry x="260" y="350" width="20" height="20" as="geometry" />
        </mxCell>
        <mxCell id="o3wT2hrJYVhyHIlOyUCE-20" value="si" style="text;html=1;align=center;verticalAlign=middle;resizable=0;points=[];autosize=1;" vertex="1" parent="1">
          <mxGeometry x="200" y="565" width="20" height="20" as="geometry" />
        </mxCell>
        <mxCell id="o3wT2hrJYVhyHIlOyUCE-25" style="edgeStyle=orthogonalEdgeStyle;rounded=0;orthogonalLoop=1;jettySize=auto;html=1;exitX=0.5;exitY=1;exitDx=0;exitDy=0;entryX=0.5;entryY=0;entryDx=0;entryDy=0;" edge="1" parent="1" source="o3wT2hrJYVhyHIlOyUCE-23" target="o3wT2hrJYVhyHIlOyUCE-3">
          <mxGeometry relative="1" as="geometry" />
        </mxCell>
        <mxCell id="o3wT2hrJYVhyHIlOyUCE-23" value="h=m/6o;&lt;br&gt;m=s/60;&lt;br&gt;s=0;" style="rounded=0;whiteSpace=wrap;html=1;" vertex="1" parent="1">
          <mxGeometry x="140" y="110" width="120" height="60" as="geometry" />
        </mxCell>
        <mxCell id="o3wT2hrJYVhyHIlOyUCE-18" value="no" style="text;html=1;align=center;verticalAlign=middle;resizable=0;points=[];autosize=1;" vertex="1" parent="1">
          <mxGeometry x="195" y="410" width="30" height="20" as="geometry" />
        </mxCell>
        <mxCell id="o3wT2hrJYVhyHIlOyUCE-34" value="no" style="text;html=1;align=center;verticalAlign=middle;resizable=0;points=[];autosize=1;" vertex="1" parent="1">
          <mxGeometry x="135" y="500" width="30" height="20" as="geometry" />
        </mxCell>
        <mxCell id="o3wT2hrJYVhyHIlOyUCE-35" value="Fin" style="rounded=1;whiteSpace=wrap;html=1;" vertex="1" parent="1">
          <mxGeometry x="150" y="670" width="100" height="30" as="geometry" />
        </mxCell>
      </root>
    </mxGraphModel>
  </diagram>
</mxfile>
